<mxfile host="app.diagrams.net" agent="Mozilla/5.0 (Windows NT 10.0; Win64; x64) AppleWebKit/537.36 (KHTML, like Gecko) Chrome/135.0.0.0 Safari/537.36" version="26.2.14">
  <diagram name="Page-1" id="EPG0WN6xm7dYrEzu2i98">
    <mxGraphModel dx="2101" dy="660" grid="1" gridSize="10" guides="1" tooltips="1" connect="1" arrows="1" fold="1" page="1" pageScale="1" pageWidth="850" pageHeight="1100" math="0" shadow="0">
      <root>
        <mxCell id="0" />
        <mxCell id="1" parent="0" />
        <mxCell id="SSx9Q6Z6ahjjvp1jiW7j-21" value="" style="rounded=0;whiteSpace=wrap;html=1;" vertex="1" parent="1">
          <mxGeometry x="290" y="590" width="230" height="270" as="geometry" />
        </mxCell>
        <mxCell id="SSx9Q6Z6ahjjvp1jiW7j-1" value="" style="rounded=0;whiteSpace=wrap;html=1;" vertex="1" parent="1">
          <mxGeometry x="185" y="150" width="480" height="320" as="geometry" />
        </mxCell>
        <mxCell id="SSx9Q6Z6ahjjvp1jiW7j-10" style="edgeStyle=orthogonalEdgeStyle;rounded=0;orthogonalLoop=1;jettySize=auto;html=1;entryX=0;entryY=0.5;entryDx=0;entryDy=0;" edge="1" parent="1" source="SSx9Q6Z6ahjjvp1jiW7j-2" target="SSx9Q6Z6ahjjvp1jiW7j-6">
          <mxGeometry relative="1" as="geometry" />
        </mxCell>
        <mxCell id="SSx9Q6Z6ahjjvp1jiW7j-2" value="" style="fontColor=#0066CC;verticalAlign=top;verticalLabelPosition=bottom;labelPosition=center;align=center;html=1;outlineConnect=0;fillColor=#CCCCCC;strokeColor=#6881B3;gradientColor=none;gradientDirection=north;strokeWidth=2;shape=mxgraph.networks.wireless_modem;" vertex="1" parent="1">
          <mxGeometry x="140" y="250" width="100" height="85" as="geometry" />
        </mxCell>
        <mxCell id="SSx9Q6Z6ahjjvp1jiW7j-3" value="" style="image;aspect=fixed;perimeter=ellipsePerimeter;html=1;align=center;shadow=0;dashed=0;spacingTop=3;image=img/lib/active_directory/home.svg;" vertex="1" parent="1">
          <mxGeometry x="190" y="150" width="50" height="48.5" as="geometry" />
        </mxCell>
        <mxCell id="SSx9Q6Z6ahjjvp1jiW7j-5" style="edgeStyle=orthogonalEdgeStyle;rounded=0;orthogonalLoop=1;jettySize=auto;html=1;" edge="1" parent="1" source="SSx9Q6Z6ahjjvp1jiW7j-4">
          <mxGeometry relative="1" as="geometry">
            <mxPoint x="130" y="330" as="targetPoint" />
          </mxGeometry>
        </mxCell>
        <mxCell id="SSx9Q6Z6ahjjvp1jiW7j-16" style="edgeStyle=orthogonalEdgeStyle;rounded=0;orthogonalLoop=1;jettySize=auto;html=1;" edge="1" parent="1" source="SSx9Q6Z6ahjjvp1jiW7j-4" target="SSx9Q6Z6ahjjvp1jiW7j-15">
          <mxGeometry relative="1" as="geometry" />
        </mxCell>
        <mxCell id="SSx9Q6Z6ahjjvp1jiW7j-4" value="&lt;b&gt;ISP&lt;/b&gt;" style="ellipse;whiteSpace=wrap;html=1;aspect=fixed;fillColor=#dae8fc;gradientColor=#7ea6e0;strokeColor=#6c8ebf;" vertex="1" parent="1">
          <mxGeometry x="-50" y="290" width="80" height="80" as="geometry" />
        </mxCell>
        <mxCell id="SSx9Q6Z6ahjjvp1jiW7j-6" value="" style="image;html=1;image=img/lib/clip_art/computers/Laptop_128x128.png" vertex="1" parent="1">
          <mxGeometry x="480" y="180" width="80" height="80" as="geometry" />
        </mxCell>
        <mxCell id="SSx9Q6Z6ahjjvp1jiW7j-7" value="" style="html=1;verticalLabelPosition=bottom;align=center;labelBackgroundColor=#ffffff;verticalAlign=top;strokeWidth=2;strokeColor=#0080F0;shadow=0;dashed=0;shape=mxgraph.ios7.icons.smartphone;" vertex="1" parent="1">
          <mxGeometry x="490" y="300" width="60" height="60" as="geometry" />
        </mxCell>
        <mxCell id="SSx9Q6Z6ahjjvp1jiW7j-8" value="" style="outlineConnect=0;dashed=0;verticalLabelPosition=bottom;verticalAlign=top;align=center;html=1;shape=mxgraph.aws3.fire_tv;fillColor=#5294CF;gradientColor=none;" vertex="1" parent="1">
          <mxGeometry x="480" y="400" width="75" height="55.5" as="geometry" />
        </mxCell>
        <mxCell id="SSx9Q6Z6ahjjvp1jiW7j-11" style="edgeStyle=orthogonalEdgeStyle;rounded=0;orthogonalLoop=1;jettySize=auto;html=1;entryX=-0.017;entryY=0.497;entryDx=0;entryDy=0;entryPerimeter=0;" edge="1" parent="1" source="SSx9Q6Z6ahjjvp1jiW7j-2" target="SSx9Q6Z6ahjjvp1jiW7j-7">
          <mxGeometry relative="1" as="geometry">
            <Array as="points">
              <mxPoint x="360" y="293" />
              <mxPoint x="360" y="330" />
            </Array>
          </mxGeometry>
        </mxCell>
        <mxCell id="SSx9Q6Z6ahjjvp1jiW7j-12" style="edgeStyle=orthogonalEdgeStyle;rounded=0;orthogonalLoop=1;jettySize=auto;html=1;entryX=0;entryY=0.5;entryDx=0;entryDy=0;entryPerimeter=0;" edge="1" parent="1" source="SSx9Q6Z6ahjjvp1jiW7j-2" target="SSx9Q6Z6ahjjvp1jiW7j-8">
          <mxGeometry relative="1" as="geometry" />
        </mxCell>
        <mxCell id="SSx9Q6Z6ahjjvp1jiW7j-13" value="&lt;b&gt;Public IP&lt;/b&gt;" style="text;html=1;align=center;verticalAlign=middle;resizable=0;points=[];autosize=1;strokeColor=none;fillColor=none;" vertex="1" parent="1">
          <mxGeometry x="115" y="350" width="70" height="30" as="geometry" />
        </mxCell>
        <mxCell id="SSx9Q6Z6ahjjvp1jiW7j-14" value="&lt;b&gt;IntraNet&lt;/b&gt;" style="text;html=1;align=center;verticalAlign=middle;resizable=0;points=[];autosize=1;strokeColor=none;fillColor=none;" vertex="1" parent="1">
          <mxGeometry x="270" y="159.25" width="70" height="30" as="geometry" />
        </mxCell>
        <mxCell id="SSx9Q6Z6ahjjvp1jiW7j-15" value="&lt;b&gt;Internet&lt;/b&gt;" style="ellipse;shape=cloud;whiteSpace=wrap;html=1;" vertex="1" parent="1">
          <mxGeometry x="-280" y="290" width="120" height="80" as="geometry" />
        </mxCell>
        <mxCell id="SSx9Q6Z6ahjjvp1jiW7j-17" value="&lt;b&gt;Private IP&lt;/b&gt;" style="text;html=1;align=center;verticalAlign=middle;resizable=0;points=[];autosize=1;strokeColor=none;fillColor=none;" vertex="1" parent="1">
          <mxGeometry x="385" y="189.25" width="80" height="30" as="geometry" />
        </mxCell>
        <mxCell id="SSx9Q6Z6ahjjvp1jiW7j-18" value="&lt;b&gt;Internal communication should be done using private IP&lt;/b&gt;&lt;div&gt;&lt;b&gt;Outside of n/w we must use pulbicIP&lt;/b&gt;&lt;/div&gt;" style="text;html=1;align=center;verticalAlign=middle;resizable=0;points=[];autosize=1;strokeColor=none;fillColor=none;" vertex="1" parent="1">
          <mxGeometry x="150" y="493" width="340" height="40" as="geometry" />
        </mxCell>
        <mxCell id="SSx9Q6Z6ahjjvp1jiW7j-20" value="" style="image;html=1;image=img/lib/clip_art/computers/Server_128x128.png" vertex="1" parent="1">
          <mxGeometry x="325" y="590" width="80" height="80" as="geometry" />
        </mxCell>
        <mxCell id="SSx9Q6Z6ahjjvp1jiW7j-22" value="&lt;b&gt;nginx&lt;/b&gt;" style="rounded=1;whiteSpace=wrap;html=1;fillColor=#d5e8d4;gradientColor=#97d077;strokeColor=#82b366;" vertex="1" parent="1">
          <mxGeometry x="380" y="700" width="120" height="60" as="geometry" />
        </mxCell>
        <mxCell id="SSx9Q6Z6ahjjvp1jiW7j-24" style="edgeStyle=orthogonalEdgeStyle;rounded=0;orthogonalLoop=1;jettySize=auto;html=1;entryX=0;entryY=0.5;entryDx=0;entryDy=0;" edge="1" parent="1" source="SSx9Q6Z6ahjjvp1jiW7j-23" target="SSx9Q6Z6ahjjvp1jiW7j-21">
          <mxGeometry relative="1" as="geometry" />
        </mxCell>
        <mxCell id="SSx9Q6Z6ahjjvp1jiW7j-23" value="" style="html=1;verticalLabelPosition=bottom;align=center;labelBackgroundColor=#ffffff;verticalAlign=top;strokeWidth=2;strokeColor=#0080F0;shadow=0;dashed=0;shape=mxgraph.ios7.icons.user;" vertex="1" parent="1">
          <mxGeometry x="-40" y="670" width="90" height="110" as="geometry" />
        </mxCell>
        <mxCell id="SSx9Q6Z6ahjjvp1jiW7j-25" value="" style="endArrow=classic;html=1;rounded=0;exitX=0;exitY=0.5;exitDx=0;exitDy=0;entryX=0;entryY=0.25;entryDx=0;entryDy=0;" edge="1" parent="1" source="SSx9Q6Z6ahjjvp1jiW7j-21" target="SSx9Q6Z6ahjjvp1jiW7j-22">
          <mxGeometry width="50" height="50" relative="1" as="geometry">
            <mxPoint x="160" y="730" as="sourcePoint" />
            <mxPoint x="210" y="680" as="targetPoint" />
          </mxGeometry>
        </mxCell>
      </root>
    </mxGraphModel>
  </diagram>
</mxfile>
